{"title":"ALIEN-RESURRECTION-1997 IN H.264 BY WINKER","uid":5191560,"size":1051504500,"categoryP":"video","categoryS":"movies","magnet":"?xt=urn:btih:8a707fe3879618b9177d094bdf78afc34295b096&amp;dn=ALIEN-RESURRECTION-1997+IN+H.264+BY+WINKER&amp;tr=udp%3A%2F%2Ftracker.openbittorrent.com%3A80&amp;tr=udp%3A%2F%2Fopen.demonii.com%3A1337&amp;tr=udp%3A%2F%2Ftracker.coppersurfer.tk%3A6969&amp;tr=udp%3A%2F%2Fexodus.desync.com%3A6969","seeders":2,"leechers":0,"uploader":"alanwatson","files":-1,"time":1259744090,"description":"Ellen Ripley (Sigourney Weaver) died fighting the perfect predator. Two hundred years and eight horrific experiments later, she's back. A group of scientists have cloned her, along with the alien queen inside her, hoping to breed the ultimate weapon. But the resurrected Ripley is full of surprises for her &quot;creators&quot;, as are the aliens. And soon, a lot more than &quot;all hell&quot; breaks loose! To combat the creatures, Ripley must team up with a band of smugglers, including a mechanic named Call (Winona Ryder), who holds more than a few surprises of her own.\n\nFormat                           : MPEG-4\nFormat profile                   : Base Media / Version 2\nCodec ID                         : mp42\nFile size                        : 999 MiB\nDuration                         : 1h 51mn\nOverall bit rate                 : 1 254 Kbps\nEncoded date                     : UTC 2009-11-20 03:29:34\nTagged date                      : UTC 2009-11-20 09:08:19\nWriting application              : HandBrake 0.9.3 2008112300\n\nVideo\nID                               : 1\nFormat                           : AVC\nFormat/Info                      : Advanced Video Codec\nFormat profile                   : &lt;a class=&quot;__cf_email__&quot; href=&quot;/cdn-cgi/l/email-protection&quot; data-cfemail=&quot;5d103c34331d1169736d&quot;&gt;[email&amp;#160;protected]&lt;/a&gt;&lt;script cf-hash='f9e31' type=&quot;text/javascript&quot;&gt;\n/* &lt;![CDATA[ */!function(){try{var t=&quot;currentScript&quot;in document?document.currentScript:function(){for(var t=document.getElementsByTagName(&quot;script&quot;),e=t.length;e--;)if(t[e].getAttribute(&quot;cf-hash&quot;))return t[e]}();if(t&amp;&amp;t.previousSibling){var e,r,n,i,c=t.previousSibling,a=c.getAttribute(&quot;data-cfemail&quot;);if(a){for(e=&quot;&quot;,r=parseInt(a.substr(0,2),16),n=2;a.length-n;n+=2)i=parseInt(a.substr(n,2),16)^r,e+=String.fromCharCode(i);e=document.createTextNode(e),c.parentNode.replaceChild(e,c)}}}catch(u){}}();/* ]]&gt; */&lt;/script&gt;\nFormat settings, CABAC           : Yes\nFormat settings, ReFrames        : 3 frames\nCodec ID                         : avc1\nCodec ID/Info                    : Advanced Video Coding\nDuration                         : 1h 51mn\nBit rate mode                    : Variable\nBit rate                         : 1 091 Kbps\nWidth                            : 720 pixels\nHeight                           : 436 pixels\nDisplay aspect ratio             : 2.35:1\nFrame rate mode                  : Variable\nFrame rate                       : 25.000 fps\nMinimum frame rate               : 12.500 fps\nMaximum frame rate               : 86.486 fps\nResolution                       : 24 bits\nColorimetry                      : 4:2:0\nScan type                        : Progressive\nBits/(Pixel*Frame)               : 0.139\nStream size                      : 869 MiB (87%)\nWriting library                  : x264 core 65\n\n\nAudio\nID                               : 2\nFormat                           : AAC\nFormat/Info                      : Advanced Audio Codec\nFormat version                   : Version 4\nFormat profile                   : LC\nFormat settings, SBR             : No\nCodec ID                         : 40\nDuration                         : 1h 51mn\nBit rate mode                    : Variable\nBit rate                         : 160 Kbps\nMaximum bit rate                 : 225 Kbps\nChannel(s)                       : 2 channels\nChannel positions                : L R\nSampling rate                    : 48.0 KHz\nResolution                       : 16 bits\nStream size                      : 127 MiB (13%)\nLanguage                         : English\nEncoded date                     : UTC 2009-11-20 03:29:34\nTagged date                      : UTC 2009-11-20 09:08:10\n\n","torrent":{"xt":"urn:btih:8a707fe3879618b9177d094bdf78afc34295b096","amp;dn":"ALIEN-RESURRECTION-1997+IN+H.264+BY+WINKER","amp;tr":["udp%3A%2F%2Ftracker.openbittorrent.com%3A80","udp%3A%2F%2Fopen.demonii.com%3A1337","udp%3A%2F%2Ftracker.coppersurfer.tk%3A6969","udp%3A%2F%2Fexodus.desync.com%3A6969"],"infoHash":"8a707fe3879618b9177d094bdf78afc34295b096","infoHashBuffer":{"type":"Buffer","data":[138,112,127,227,135,150,24,185,23,125,9,75,223,120,175,195,66,149,176,150]},"announce":[],"urlList":[]}}